<svg id="visual" viewBox="0 0 2560 1440" width="2560" height="1440" xmlns="http://www.w3.org/2000/svg" xmlns:xlink="http://www.w3.org/1999/xlink" version="1.1"><path d="M0 361L233 361L233 246L465 246L465 275L698 275L698 375L931 375L931 260L1164 260L1164 246L1396 246L1396 332L1629 332L1629 404L1862 404L1862 289L2095 289L2095 231L2327 231L2327 188L2560 188L2560 332L2560 0L2560 0L2327 0L2327 0L2095 0L2095 0L1862 0L1862 0L1629 0L1629 0L1396 0L1396 0L1164 0L1164 0L931 0L931 0L698 0L698 0L465 0L465 0L233 0L233 0L0 0Z" fill="#6976fa"></path><path d="M0 606L233 606L233 476L465 476L465 375L698 375L698 476L931 476L931 491L1164 491L1164 519L1396 519L1396 491L1629 491L1629 591L1862 591L1862 390L2095 390L2095 390L2327 390L2327 318L2560 318L2560 447L2560 330L2560 186L2327 186L2327 229L2095 229L2095 287L1862 287L1862 402L1629 402L1629 330L1396 330L1396 244L1164 244L1164 258L931 258L931 373L698 373L698 273L465 273L465 244L233 244L233 359L0 359Z" fill="#6663e8"></path><path d="M0 750L233 750L233 591L465 591L465 548L698 548L698 591L931 591L931 721L1164 721L1164 620L1396 620L1396 577L1629 577L1629 721L1862 721L1862 505L2095 505L2095 505L2327 505L2327 534L2560 534L2560 620L2560 445L2560 316L2327 316L2327 388L2095 388L2095 388L1862 388L1862 589L1629 589L1629 489L1396 489L1396 517L1164 517L1164 489L931 489L931 474L698 474L698 373L465 373L465 474L233 474L233 604L0 604Z" fill="#644fd6"></path><path d="M0 1211L233 1211L233 1139L465 1139L465 1038L698 1038L698 937L931 937L931 1153L1164 1153L1164 980L1396 980L1396 1038L1629 1038L1629 1225L1862 1225L1862 1139L2095 1139L2095 735L2327 735L2327 908L2560 908L2560 951L2560 618L2560 532L2327 532L2327 503L2095 503L2095 503L1862 503L1862 719L1629 719L1629 575L1396 575L1396 618L1164 618L1164 719L931 719L931 589L698 589L698 546L465 546L465 589L233 589L233 748L0 748Z" fill="#623bc3"></path><path d="M0 1441L233 1441L233 1441L465 1441L465 1441L698 1441L698 1441L931 1441L931 1441L1164 1441L1164 1441L1396 1441L1396 1441L1629 1441L1629 1441L1862 1441L1862 1441L2095 1441L2095 1441L2327 1441L2327 1441L2560 1441L2560 1441L2560 949L2560 906L2327 906L2327 733L2095 733L2095 1137L1862 1137L1862 1223L1629 1223L1629 1036L1396 1036L1396 978L1164 978L1164 1151L931 1151L931 935L698 935L698 1036L465 1036L465 1137L233 1137L233 1209L0 1209Z" fill="#5f23b0"></path></svg>