<svg id="visual" viewBox="0 0 2560 1440" width="2560" height="1440" xmlns="http://www.w3.org/2000/svg" xmlns:xlink="http://www.w3.org/1999/xlink" version="1.1"><path d="M0 361L38.8 363.3C77.7 365.7 155.3 370.3 232.8 375.2C310.3 380 387.7 385 465.2 346.7C542.7 308.3 620.3 226.7 698 221.8C775.7 217 853.3 289 931 301C1008.7 313 1086.3 265 1163.8 245.8C1241.3 226.7 1318.7 236.3 1396.2 224.3C1473.7 212.3 1551.3 178.7 1629 176.2C1706.7 173.7 1784.3 202.3 1862 219.2C1939.7 236 2017.3 241 2094.8 257.8C2172.3 274.7 2249.7 303.3 2327.2 288.8C2404.7 274.3 2482.3 216.7 2521.2 187.8L2560 159L2560 0L2521.2 0C2482.3 0 2404.7 0 2327.2 0C2249.7 0 2172.3 0 2094.8 0C2017.3 0 1939.7 0 1862 0C1784.3 0 1706.7 0 1629 0C1551.3 0 1473.7 0 1396.2 0C1318.7 0 1241.3 0 1163.8 0C1086.3 0 1008.7 0 931 0C853.3 0 775.7 0 698 0C620.3 0 542.7 0 465.2 0C387.7 0 310.3 0 232.8 0C155.3 0 77.7 0 38.8 0L0 0Z" fill="#4d00ff"></path><path d="M0 620L38.8 603.2C77.7 586.3 155.3 552.7 232.8 545.5C310.3 538.3 387.7 557.7 465.2 529C542.7 500.3 620.3 423.7 698 421.3C775.7 419 853.3 491 931 510.2C1008.7 529.3 1086.3 495.7 1163.8 488.3C1241.3 481 1318.7 500 1396.2 468.8C1473.7 437.7 1551.3 356.3 1629 344.3C1706.7 332.3 1784.3 389.7 1862 404C1939.7 418.3 2017.3 389.7 2094.8 421C2172.3 452.3 2249.7 543.7 2327.2 529.3C2404.7 515 2482.3 395 2521.2 335L2560 275L2560 157L2521.2 185.8C2482.3 214.7 2404.7 272.3 2327.2 286.8C2249.7 301.3 2172.3 272.7 2094.8 255.8C2017.3 239 1939.7 234 1862 217.2C1784.3 200.3 1706.7 171.7 1629 174.2C1551.3 176.7 1473.7 210.3 1396.2 222.3C1318.7 234.3 1241.3 224.7 1163.8 243.8C1086.3 263 1008.7 311 931 299C853.3 287 775.7 215 698 219.8C620.3 224.7 542.7 306.3 465.2 344.7C387.7 383 310.3 378 232.8 373.2C155.3 368.3 77.7 363.7 38.8 361.3L0 359Z" fill="#3b04e5"></path><path d="M0 1139L38.8 1093.3C77.7 1047.7 155.3 956.3 232.8 903.5C310.3 850.7 387.7 836.3 465.2 824.3C542.7 812.3 620.3 802.7 698 790.7C775.7 778.7 853.3 764.3 931 769.2C1008.7 774 1086.3 798 1163.8 793.2C1241.3 788.3 1318.7 754.7 1396.2 725.8C1473.7 697 1551.3 673 1629 716.2C1706.7 759.3 1784.3 869.7 1862 900.8C1939.7 932 2017.3 884 2094.8 884C2172.3 884 2249.7 932 2327.2 884C2404.7 836 2482.3 692 2521.2 620L2560 548L2560 273L2521.2 333C2482.3 393 2404.7 513 2327.2 527.3C2249.7 541.7 2172.3 450.3 2094.8 419C2017.3 387.7 1939.7 416.3 1862 402C1784.3 387.7 1706.7 330.3 1629 342.3C1551.3 354.3 1473.7 435.7 1396.2 466.8C1318.7 498 1241.3 479 1163.8 486.3C1086.3 493.7 1008.7 527.3 931 508.2C853.3 489 775.7 417 698 419.3C620.3 421.7 542.7 498.3 465.2 527C387.7 555.7 310.3 536.3 232.8 543.5C155.3 550.7 77.7 584.3 38.8 601.2L0 618Z" fill="#2a06cc"></path><path d="M0 1355L38.8 1335.7C77.7 1316.3 155.3 1277.7 232.8 1272.8C310.3 1268 387.7 1297 465.2 1301.8C542.7 1306.7 620.3 1287.3 698 1270.5C775.7 1253.7 853.3 1239.3 931 1244.2C1008.7 1249 1086.3 1273 1163.8 1275.3C1241.3 1277.7 1318.7 1258.3 1396.2 1246.3C1473.7 1234.3 1551.3 1229.7 1629 1222.5C1706.7 1215.3 1784.3 1205.7 1862 1217.7C1939.7 1229.7 2017.3 1263.3 2094.8 1282.5C2172.3 1301.7 2249.7 1306.3 2327.2 1299.2C2404.7 1292 2482.3 1273 2521.2 1263.5L2560 1254L2560 546L2521.2 618C2482.3 690 2404.7 834 2327.2 882C2249.7 930 2172.3 882 2094.8 882C2017.3 882 1939.7 930 1862 898.8C1784.3 867.7 1706.7 757.3 1629 714.2C1551.3 671 1473.7 695 1396.2 723.8C1318.7 752.7 1241.3 786.3 1163.8 791.2C1086.3 796 1008.7 772 931 767.2C853.3 762.3 775.7 776.7 698 788.7C620.3 800.7 542.7 810.3 465.2 822.3C387.7 834.3 310.3 848.7 232.8 901.5C155.3 954.3 77.7 1045.7 38.8 1091.3L0 1137Z" fill="#1706b3"></path><path d="M0 1441L38.8 1441C77.7 1441 155.3 1441 232.8 1441C310.3 1441 387.7 1441 465.2 1441C542.7 1441 620.3 1441 698 1441C775.7 1441 853.3 1441 931 1441C1008.7 1441 1086.3 1441 1163.8 1441C1241.3 1441 1318.7 1441 1396.2 1441C1473.7 1441 1551.3 1441 1629 1441C1706.7 1441 1784.3 1441 1862 1441C1939.7 1441 2017.3 1441 2094.8 1441C2172.3 1441 2249.7 1441 2327.2 1441C2404.7 1441 2482.3 1441 2521.2 1441L2560 1441L2560 1252L2521.2 1261.5C2482.3 1271 2404.7 1290 2327.2 1297.2C2249.7 1304.3 2172.3 1299.7 2094.8 1280.5C2017.3 1261.3 1939.7 1227.7 1862 1215.7C1784.3 1203.7 1706.7 1213.3 1629 1220.5C1551.3 1227.7 1473.7 1232.3 1396.2 1244.3C1318.7 1256.3 1241.3 1275.7 1163.8 1273.3C1086.3 1271 1008.7 1247 931 1242.2C853.3 1237.3 775.7 1251.7 698 1268.5C620.3 1285.3 542.7 1304.7 465.2 1299.8C387.7 1295 310.3 1266 232.8 1270.8C155.3 1275.7 77.7 1314.3 38.8 1333.7L0 1353Z" fill="#00059a"></path></svg>